{"title":"Charlie and the Chocolate Factory [2005]DvDrip[x265 MP4+Subs]-Ni","uid":11244475,"size":1229533045,"categoryP":"video","categoryS":"movies","magnet":"?xt=urn:btih:8df1051ece7dd44c1fda1f90c68c556568fae986&amp;dn=Charlie+and+the+Chocolate+Factory+%5B2005%5DDvDrip%5Bx265+MP4%2BSubs%5D-Ni&amp;tr=udp%3A%2F%2Ftracker.openbittorrent.com%3A80&amp;tr=udp%3A%2F%2Fopen.demonii.com%3A1337&amp;tr=udp%3A%2F%2Ftracker.coppersurfer.tk%3A6969&amp;tr=udp%3A%2F%2Fexodus.desync.com%3A6969","seeders":1,"leechers":0,"uploader":"TvTeam","files":7,"time":1413718037,"description":" &lt;a href=&quot;http://www.torrenting.com&quot; rel=&quot;nofollow&quot; target=&quot;_NEW&quot;&gt;http://www.torrenting.com&lt;/a&gt;\n\nSign up is OPEN - for time being. Come and have fun.\n\n\n....[center]\n[IMG]http://lookpic.com/O/i2/1376/fazH8KSz.png[/IMG]\n\n\n\n\n[img=http://lookpic.com/O/i2/1725/ZWFpfUCn.png]\n\n[size=4][b]Charlie and the Chocolate Factory [2005]DvDrip[x265 MP4+Subs]-Nikon[/b][/size]\n\n[img=http://lookpic.com/O/i2/1725/ZWFpfUCn.png]\n\n\n &lt;a href=&quot;\nhttp://lookpic.com/O/i2/1237/KMhsWrN.png&quot; rel=&quot;nofollow&quot; target=&quot;_NEW&quot;&gt;\nhttp://lookpic.com/O/i2/1237/KMhsWrN.png&lt;/a&gt;\n\n[/center]\n\n\n[img=http://lookpic.com/O/i2/1000/kd7YvslF.png]\n\n[size=3]\n[pre]\n[b][color=#EF2929]Format[/color][/b]                                   : [b]MP4[/b]\nFormat profile                           : Base Media / Version 2\nCodec ID                                 : mp42\nFile size                                : 1.14 GiB\nDuration                                 : 1h 54mn\nOverall bit rate mode                    : Variable\nOverall bit rate                         : 1 415 Kbps\nMovie name                               : CHARLIE_CHOCOLATE_FACTORY_D1.Title1\nAlbum                                    : CHARLIE_CHOCOLATE_FACTORY_D1\n\n\n[b][color=#EF2929]Video[/color][/b]\nFormat                                   : [b]HEVC[/b]\nFormat/Info                              : High Efficiency Video Coding\nFormat profile                           : Main@L3.0\nCodec ID                                 : hvc1\nCodec ID/Info                            : High Efficiency Video Coding\nDuration                                 : 1h 54mn\nBit rate                                 : 961 Kbps\nWidth                                    : 720 pixels\nHeight                                   : 408 pixels\nDisplay aspect ratio                     : 16:9\nFrame rate mode                          : Constant\nFrame rate                               : 23.976 fps\nColor space                              : YUV\nChroma subsampling                       : 4:2:0\nBit depth                                : 8 bits\nBits/(Pixel*Frame)                       : 0.136\nStream size                              : 790 MiB (68%)\n[b][color=red]Subtitles                                : ENG | SPA | FRE[/color][/b] (External)\nWriting library                          : [/size][size=4][b]x265[/b][/size][size=3]\n\n\n[b][color=#EF2929]Audio[/color][/b]\nFormat                                   : AAC\nFormat/Info                              : Advanced Audio Codec\nFormat profile                           : LC\nCodec ID                                 : 40\nDuration                                 : 1h 54mn\nBit rate mode                            : Variable\nBit rate                                 : 452 Kbps\nChannel(s)                               : 6 channels\nChannel positions                        : Front: L C R, Side: L R, LFE\nSampling rate                            : 48.0 KHz\nCompression mode                         : Lossy\nStream size                              : 368 MiB (32%)\nLanguage                                 : English\n","torrent":{"xt":"urn:btih:8df1051ece7dd44c1fda1f90c68c556568fae986","amp;dn":"Charlie+and+the+Chocolate+Factory+%5B2005%5DDvDrip%5Bx265+MP4%2BSubs%5D-Ni","amp;tr":["udp%3A%2F%2Ftracker.openbittorrent.com%3A80","udp%3A%2F%2Fopen.demonii.com%3A1337","udp%3A%2F%2Ftracker.coppersurfer.tk%3A6969","udp%3A%2F%2Fexodus.desync.com%3A6969"],"infoHash":"8df1051ece7dd44c1fda1f90c68c556568fae986","infoHashBuffer":{"type":"Buffer","data":[141,241,5,30,206,125,212,76,31,218,31,144,198,140,85,101,104,250,233,134]},"announce":[],"urlList":[]}}